<svg width="234" height="263" viewBox="0 0 234 263" fill="none" xmlns="http://www.w3.org/2000/svg">
<ellipse cx="117" cy="225" rx="117" ry="38" fill="white"/>
<path d="M196.074 51.5743L166.351 60.0756C164.482 55.0693 161.725 50.2046 158.079 45.4817C154.528 40.6643 149.667 36.6971 143.498 33.58C137.329 30.4628 129.431 28.9043 119.804 28.9043C106.625 28.9043 95.6425 31.9742 86.8564 38.114C78.1638 44.1593 73.8176 51.8577 73.8176 61.2091C73.8176 69.5214 76.8086 76.0863 82.7905 80.9037C88.7725 85.721 98.1194 89.7355 110.831 92.9471L142.797 100.882C162.052 105.605 176.399 112.831 185.84 122.56C195.28 132.195 200 144.616 200 159.824C200 172.292 196.448 183.438 189.345 193.262C182.334 203.086 172.52 210.831 159.902 216.499C147.284 222.166 132.609 225 115.878 225C93.9133 225 75.7337 220.183 61.3395 210.548C46.9454 200.913 37.8322 186.839 34 168.325L65.4054 160.39C68.3964 172.103 74.0512 180.888 82.3699 186.744C90.7821 192.601 101.765 195.529 115.318 195.529C130.74 195.529 142.984 192.223 152.051 185.611C161.211 178.904 165.791 170.875 165.791 161.524C165.791 153.967 163.173 147.639 157.939 142.538C152.705 137.343 144.667 133.47 133.824 130.919L97.9324 122.418C78.2106 117.695 63.723 110.375 54.4696 100.457C45.3097 90.444 40.7297 77.9282 40.7297 62.9093C40.7297 50.6297 44.1413 39.767 50.9645 30.3212C57.8812 20.8753 67.2748 13.4603 79.1453 8.07618C91.1092 2.69206 104.662 0 119.804 0C141.115 0 157.846 4.72292 169.997 14.1687C182.241 23.6146 190.934 36.0831 196.074 51.5743Z" fill="white"/>
</svg>
